<svg xmlns="http://www.w3.org/2000/svg" xmlns:xlink="http://www.w3.org/1999/xlink" version="1.1" width="256" height="256" viewBox="0 0 256 256" xml:space="preserve">

<defs>
</defs>
<g style="stroke: none; stroke-width: 0; stroke-dasharray: none; stroke-linecap: butt; stroke-linejoin: miter; stroke-miterlimit: 10; fill: none; fill-rule: nonzero; opacity: 1;" transform="translate(1.4065934065934016 1.4065934065934016) scale(2.81 2.81)" >
	<path d="M 44.503 90 c 15.245 -18.648 30.489 -42.672 30.489 -59.511 S 61.342 0 44.503 0 S 14.014 13.65 14.014 30.489 S 29.258 71.352 44.503 90 z" style="stroke: none; stroke-width: 1; stroke-dasharray: none; stroke-linecap: butt; stroke-linejoin: miter; stroke-miterlimit: 10; fill: rgb(255,100,100); fill-rule: nonzero; opacity: 1;" transform=" matrix(1 0 0 1 0 0) " stroke-linecap="round" />
	<path d="M 44.299 49.666 c -4.507 0 -9.015 -1.716 -12.446 -5.147 c -6.863 -6.863 -6.863 -18.03 0 -24.893 c 6.864 -6.863 18.03 -6.862 24.893 0 c 6.863 6.863 6.863 18.03 0 24.893 C 53.313 47.95 48.807 49.666 44.299 49.666 z M 44.299 16.478 c -3.995 0 -7.991 1.521 -11.032 4.563 c -6.083 6.083 -6.083 15.981 0 22.064 c 6.083 6.082 15.98 6.082 22.064 0 c 6.083 -6.083 6.083 -15.981 0 -22.064 C 52.289 17.999 48.294 16.478 44.299 16.478 z" style="stroke: none; stroke-width: 1; stroke-dasharray: none; stroke-linecap: butt; stroke-linejoin: miter; stroke-miterlimit: 10; fill: rgb(0,0,0); fill-rule: nonzero; opacity: 1;" transform=" matrix(1 0 0 1 0 0) " stroke-linecap="round" />
	<path d="M 74.557 61.715 l -0.615 0.615 c -1.002 1.002 -2.643 1.002 -3.645 0 l -9.957 -9.957 c -1.002 -1.002 -1.002 -2.643 0 -3.645 l 0.615 -0.615 c 1.002 -1.002 2.643 -1.002 3.645 0 l 9.957 9.957 C 75.559 59.072 75.559 60.713 74.557 61.715 z" style="stroke: none; stroke-width: 1; stroke-dasharray: none; stroke-linecap: butt; stroke-linejoin: miter; stroke-miterlimit: 10; fill: rgb(91,93,110); fill-rule: nonzero; opacity: 1;" transform=" matrix(1 0 0 1 0 0) " stroke-linecap="round" />
	<path d="M 72.119 64.082 c -0.958 0 -1.856 -0.371 -2.529 -1.045 l -9.957 -9.957 c -0.674 -0.673 -1.045 -1.571 -1.045 -2.529 s 0.371 -1.856 1.045 -2.53 l 0.614 -0.614 c 1.348 -1.348 3.714 -1.348 5.06 0 l 9.957 9.957 c 0.674 0.673 1.045 1.571 1.045 2.529 c 0 0.957 -0.371 1.855 -1.044 2.529 l -0.614 0.614 C 73.976 63.711 73.077 64.082 72.119 64.082 z M 62.777 48.361 c -0.424 0 -0.82 0.163 -1.116 0.459 l -0.614 0.614 c -0.296 0.296 -0.459 0.692 -0.459 1.116 c 0 0.423 0.163 0.819 0.459 1.115 l 9.957 9.957 c 0.593 0.594 1.642 0.592 2.231 0 l 0.614 -0.615 c 0.296 -0.296 0.459 -0.692 0.459 -1.115 s -0.163 -0.819 -0.459 -1.115 l -9.957 -9.957 C 63.597 48.524 63.2 48.361 62.777 48.361 z" style="stroke: none; stroke-width: 1; stroke-dasharray: none; stroke-linecap: butt; stroke-linejoin: miter; stroke-miterlimit: 10; fill: rgb(91,93,110); fill-rule: nonzero; opacity: 1;" transform=" matrix(1 0 0 1 0 0) " stroke-linecap="round" />
	<rect x="57.34" y="42.86" rx="0" ry="0" width="2" height="6.52" style="stroke: none; stroke-width: 1; stroke-dasharray: none; stroke-linecap: butt; stroke-linejoin: miter; stroke-miterlimit: 10; fill: rgb(91,93,110); fill-rule: nonzero; opacity: 1;" transform=" matrix(0.7071 -0.7071 0.7071 0.7071 -15.5209 54.7617) "/>
	<circle cx="44.302" cy="32.072" r="16.602" style="stroke: none; stroke-width: 1; stroke-dasharray: none; stroke-linecap: butt; stroke-linejoin: miter; stroke-miterlimit: 10; fill: rgb(255,255,255); fill-rule: nonzero; opacity: 1;" transform="  matrix(1 0 0 1 0 0) "/>
	<path d="M 44.299 49.666 c -4.507 0 -9.015 -1.716 -12.446 -5.147 c -6.863 -6.863 -6.863 -18.03 0 -24.893 c 6.864 -6.863 18.03 -6.862 24.893 0 c 6.863 6.863 6.863 18.03 0 24.893 C 53.313 47.95 48.807 49.666 44.299 49.666 z M 44.299 16.478 c -3.995 0 -7.991 1.521 -11.032 4.563 c -6.083 6.083 -6.083 15.981 0 22.064 c 6.083 6.082 15.98 6.082 22.064 0 c 6.083 -6.083 6.083 -15.981 0 -22.064 C 52.289 17.999 48.294 16.478 44.299 16.478 z" style="stroke: none; stroke-width: 1; stroke-dasharray: none; stroke-linecap: butt; stroke-linejoin: miter; stroke-miterlimit: 10; fill: rgb(91,93,110); fill-rule: nonzero; opacity: 1;" transform=" matrix(1 0 0 1 0 0) " stroke-linecap="round" />
	<path d="M 53.284 34.641 c -0.02 0 -0.038 0 -0.058 -0.001 c -0.551 -0.031 -0.973 -0.503 -0.941 -1.055 c 0.145 -2.558 -0.812 -5.064 -2.622 -6.875 c -2.279 -2.279 -5.629 -3.168 -8.741 -2.318 c -0.536 0.144 -1.083 -0.169 -1.228 -0.702 c -0.145 -0.533 0.169 -1.083 0.702 -1.228 c 3.805 -1.038 7.896 0.049 10.681 2.834 c 2.213 2.214 3.381 5.276 3.204 8.403 C 54.252 34.229 53.811 34.641 53.284 34.641 z" style="stroke: none; stroke-width: 1; stroke-dasharray: none; stroke-linecap: butt; stroke-linejoin: miter; stroke-miterlimit: 10; fill: rgb(0,210,255); fill-rule: nonzero; opacity: 1;" transform=" matrix(1 0 0 1 0 0) " stroke-linecap="round" />
</g>
</svg>